<svg xmlns="http://www.w3.org/2000/svg" width="20.83" height="20.5" viewBox="0 0 20.83 20.5"><path d="M3,3.72a16.23,16.23,0,0,1,1.43,1A8.65,8.65,0,0,1,7.52,10a.47.47,0,0,0,.24.26,9.18,9.18,0,0,1,1,.44c.7.44.66.89-.06,1.26a9.38,9.38,0,0,0-3.31,2.72,8.85,8.85,0,0,0-1.76,5c0,.42,0,.85,0,1.34l.13-.14A8.61,8.61,0,0,1,9.9,16.43a.54.54,0,0,0,.3-.26,11,11,0,0,1,.7-1.2c.38-.46.75-.38,1,.16a8.8,8.8,0,0,0,6.65,5,15.89,15.89,0,0,0,2.07.16l.36,0s-.23-.23-.37-.35c-2-1.7-3.63-3.37-4.14-6,0-.1-.15-.19-.25-.25A10.32,10.32,0,0,1,15,13.09c-.41-.29-.34-.74.13-1a9.26,9.26,0,0,0,3.31-2.61,9.18,9.18,0,0,0,1.91-6.25c0-.08,0-.16,0-.27-.05.06-.08.08-.09.11A8.61,8.61,0,0,1,14,7.5c-.1,0-.2.15-.25.25a8.75,8.75,0,0,1-.58,1.19c-.4.55-.81.48-1.11-.12A9,9,0,0,0,7.42,4.39,9.88,9.88,0,0,0,3,3.72Zm10.26,7a1.77,1.77,0,1,1-2.49,0A1.77,1.77,0,0,1,13.25,10.77Z" transform="translate(-1.5 -1.83)" style="fill:none;stroke:#020202;stroke-miterlimit:10"/></svg>